<svg width="24" height="25" fill="none" xmlns="http://www.w3.org/2000/svg"><path d="M7.75 2.5v5.8H2c0-3.61 2.15-5.78 5.75-5.8Z" fill="#A9E3E7"/><path d="M22 8.3h-5.75V2.5c3.6.02 5.75 2.19 5.75 5.8Z" fill="#A9E3E7"/><path d="M22 16.8c-.04 3.55-2.18 5.68-5.75 5.7v-5.7H22Z" fill="#A9E3E7"/><path d="M7.75 16.8v5.7c-3.57-.02-5.71-2.15-5.75-5.7h5.75Z" fill="#A9E3E7"/><path d="M7.75 9.8H2v5.5h5.75V9.8Z" fill="#A9E3E7"/><path d="M22 9.8h-5.75v5.5H22V9.8Z" fill="#A9E3E7"/><path d="M14.75 9.8h-5.5v5.5h5.5V9.8Z" fill="#A9E3E7"/><path d="M14.75 2.5h-5.5v5.8h5.5V2.5Z" fill="#A9E3E7"/><path d="M14.75 16.8h-5.5v5.7h5.5v-5.7Z" fill="#A9E3E7"/></svg>