<svg width="16" height="16" fill="none" xmlns="http://www.w3.org/2000/svg"><path fill-rule="evenodd" clip-rule="evenodd" d="M1.086 13.197 2.5 14.61l1.57-1.57.002.002 1.67-1.67-.003-.001 5.127-5.127.002.002L12.7 4.413l-.002-.001L14.52 2.59l-1.414-1.414-2.299 2.298A8.503 8.503 0 0 0 8 3C4.364 3 1.258 5.281 0 8.5a8.713 8.713 0 0 0 2.388 3.394l-1.302 1.303Zm3.482-3.483L9.232 5.05A3.6 3.6 0 0 0 8 4.834c-2.007 0-3.636 1.642-3.636 3.666 0 .426.072.834.204 1.214Z" fill="#000"/><path d="M8 14a8.5 8.5 0 0 1-2.948-.524l1.579-1.578c.423.174.885.27 1.369.27 2.007 0 3.636-1.644 3.636-3.668 0-.477-.09-.933-.255-1.352L13.51 5.02A8.712 8.712 0 0 1 16 8.5c-1.258 3.22-4.364 5.5-8 5.5Z" fill="#000"/></svg>