<svg width="25" height="25" fill="none" xmlns="http://www.w3.org/2000/svg"><path fill-rule="evenodd" clip-rule="evenodd" d="M22.706 11.35c0-7.376-5.978-13.354-13.353-13.354S-4 3.974-4 11.35C-4 3.974 1.978-2.004 9.353-2.004S22.706 3.974 22.706 11.35Zm-7.208-4.302c-.143 1.48-1.293 8.99-1.539 9.744-.21.644-.431 1.198-.852 1.198-.42 0-.88-.147-1.334-.47a236.453 236.453 0 0 0-3.882-2.607c-.367-.231-.755-.809-.208-1.365.28-.285 1.704-1.674 2.813-2.753.674-.657 1.23-1.2 1.34-1.31.292-.292.008-.665-.349-.373-.357.291-5.328 3.618-5.759 3.885-.406.253-1.132.406-1.768.23a44.338 44.338 0 0 1-2.226-.68c-.428-.153-.583-.3-.583-.562 0-.371.524-.628 1.078-.863.584-.248 10.693-4.54 11.484-4.826.576-.207 1.073-.288 1.409-.127.277.133.419.431.376.88Z" fill="#A9E3E7"/></svg>