<svg width="91" height="91" fill="none" xmlns="http://www.w3.org/2000/svg"><path d="M80.762 83.416a2.64 2.64 0 0 1-1.858-.758l-7.052-7.052c-1.024-1.024-1.024-2.692 0-3.754 1.023-1.024 2.692-1.024 3.754 0l7.052 7.052c1.024 1.024 1.024 2.692 0 3.754a2.8 2.8 0 0 1-1.896.758Z" fill="#4A7779"/><path d="M43.604 7.583c-19.869 0-36.021 16.152-36.021 36.02 0 19.87 16.152 36.022 36.02 36.022 19.87 0 36.022-16.153 36.022-36.021 0-19.869-16.153-36.021-36.021-36.021Zm9.479 39.623H34.125a2.864 2.864 0 0 1-2.844-2.844 2.865 2.865 0 0 1 2.844-2.844h18.958a2.865 2.865 0 0 1 2.844 2.844 2.864 2.864 0 0 1-2.844 2.844Z" fill="#4A7779"/></svg>