<svg width="40" height="40" fill="none" xmlns="http://www.w3.org/2000/svg"><rect width="40" height="40" rx="20" fill="#fff"/><path d="M25.091 17.332c.009.116.009.232.009.348 0 3.55-2.702 7.641-7.64 7.641a7.587 7.587 0 0 1-4.124-1.206c.216.025.424.033.649.033a5.38 5.38 0 0 0 3.334-1.147 2.69 2.69 0 0 1-2.512-1.862c.166.025.333.041.508.041.24 0 .482-.033.707-.091a2.685 2.685 0 0 1-2.153-2.635v-.034c.358.2.773.324 1.213.341a2.68 2.68 0 0 1-1.197-2.236c0-.499.132-.956.365-1.355a7.64 7.64 0 0 0 5.537 2.81 3.047 3.047 0 0 1-.066-.615 2.683 2.683 0 0 1 2.685-2.685c.773 0 1.471.324 1.962.848a5.304 5.304 0 0 0 1.704-.649 2.68 2.68 0 0 1-1.18 1.48 5.38 5.38 0 0 0 1.545-.416 5.765 5.765 0 0 1-1.346 1.389Z" fill="#000"/></svg>