<svg width="43" height="28" fill="none" xmlns="http://www.w3.org/2000/svg"><path d="M40.944 21.104c0 2.474-.81 4.224-2.432 5.248-1.621.939-3.115 1.408-4.48 1.408-2.901 0-5.333-.81-7.296-2.432-1.878-1.622-2.816-3.84-2.816-6.656 0-2.73.725-5.206 2.176-7.424 1.45-2.304 3.328-4.139 5.632-5.504 2.39-1.365 4.352-2.39 5.888-3.072A49.521 49.521 0 0 1 42.608.88l-.512 3.584c-2.219.256-4.608 1.45-7.168 3.584-2.56 2.048-4.096 4.395-4.608 7.04-.256 1.621-.341 2.56-.256 2.816.085.256.427.384 1.024.384.256 0 .768-.256 1.536-.768.853-.598 1.75-.896 2.688-.896 3.755 0 5.632 1.493 5.632 4.48Zm-23.04 0c0 2.474-.81 4.224-2.432 5.248-1.621.939-3.115 1.408-4.48 1.408-2.901 0-5.333-.81-7.296-2.432C1.819 23.706.88 21.488.88 18.672c0-2.73.725-5.206 2.176-7.424 1.45-2.304 3.328-4.139 5.632-5.504 2.39-1.365 4.352-2.39 5.888-3.072A49.521 49.521 0 0 1 19.568.88l-.512 3.584c-2.219.256-4.608 1.45-7.168 3.584-2.56 2.048-4.096 4.395-4.608 7.04-.256 1.621-.341 2.56-.256 2.816.085.256.427.384 1.024.384.256 0 .768-.256 1.536-.768.853-.598 1.75-.896 2.688-.896 3.755 0 5.632 1.493 5.632 4.48Z" fill="#F0F7F8"/></svg>