<svg width="77" height="54" fill="none" xmlns="http://www.w3.org/2000/svg"><path d="M75.73 11.647s-.745-5.29-3.043-7.622C69.78.97 66.516.957 65.025.773 54.32 0 38.262 0 38.262 0h-.036S22.168 0 11.463.773C9.972.957 6.709.97 3.8 4.025 1.503 6.357.758 11.647.758 11.647S0 17.857 0 24.079v5.83c0 6.21.77 12.42.77 12.42s.745 5.29 3.043 7.621c2.908 3.056 6.733 2.958 8.432 3.277 6.11.589 26.005.773 26.005.773s16.07-.025 26.775-.798c1.49-.184 4.754-.196 7.662-3.252 2.298-2.332 3.043-7.621 3.043-7.621s.77-6.21.77-12.42v-5.83c0-6.222-.77-12.432-.77-12.432Z" fill="#000" fill-opacity=".25"/><path d="M30.355 15.379v21.575l20.665-10.75-20.665-10.825Z" fill="#EAEAEA"/></svg>