<svg width="56" height="56" fill="none" xmlns="http://www.w3.org/2000/svg"><path d="M37.777 4.667H18.223C9.73 4.667 4.667 9.73 4.667 18.224v19.53c0 8.516 5.063 13.58 13.556 13.58h19.53c8.494 0 13.557-5.064 13.557-13.557V18.224c.023-8.494-5.04-13.557-13.533-13.557ZM42 29.75H29.75V42c0 .957-.793 1.75-1.75 1.75s-1.75-.793-1.75-1.75V29.75H14c-.957 0-1.75-.793-1.75-1.75 0-.956.793-1.75 1.75-1.75h12.25V14c0-.956.793-1.75 1.75-1.75s1.75.794 1.75 1.75v12.25H42c.957 0 1.75.794 1.75 1.75 0 .957-.793 1.75-1.75 1.75Z" fill="#010101"/></svg>