<svg width="87" height="40" viewBox="0 0 87 40" fill="none" xmlns="http://www.w3.org/2000/svg">
<path d="M0 39.8927V33.1621H1.48713V35.8638H4.0044V33.1621H5.48206V39.8927H4.00354V37.191H1.48713V39.8927H0Z" fill="#425378"/>
<path d="M11.7936 39.8927H8.06807C7.5758 39.8927 7.18164 39.534 7.18164 39.0942V33.9606C7.18164 33.5208 7.5758 33.1621 8.06807 33.1621H11.7936V34.3918H8.60508V35.9087H11.5965V37.147H8.60508V38.6639H11.7936V39.8927Z" fill="#425378"/>
<path d="M17.56 39.8927H14.2458C13.7535 39.8927 13.3594 39.534 13.3594 39.0942V33.1621H14.8465V38.5828H17.56V39.8927Z" fill="#425378"/>
<path d="M18.7773 39.8927V33.9606C18.7773 33.5208 19.1715 33.1621 19.6638 33.1621H21.2671C21.9478 33.1621 22.521 33.3863 22.996 33.8442C23.4711 34.3021 23.7035 34.8497 23.7035 35.5042C23.7035 36.1501 23.4702 36.6977 22.996 37.1556C22.5218 37.6135 21.9478 37.8378 21.2671 37.8378H20.2283V39.8927H18.7773ZM20.2283 36.5994H21.2043C21.8136 36.5994 22.2878 36.1148 22.2878 35.5042C22.2878 35.199 22.1802 34.9385 21.9745 34.723C21.7688 34.5074 21.5089 34.3996 21.2043 34.3996H20.2283V36.5994Z" fill="#425378"/>
<path d="M26.5608 39.8926V34.4719H24.707V33.1611H29.9016V34.4719H28.0479V39.8926H26.5608Z" fill="#425378"/>
<path d="M36.4798 34.068C37.152 34.7415 37.4919 35.5581 37.4919 36.5274C37.4919 37.4881 37.152 38.3134 36.4798 38.9869C35.8077 39.6595 34.9746 40.001 33.9901 40.001C33.0142 40.001 32.1811 39.669 31.5004 38.9955C30.8282 38.3228 30.4883 37.4967 30.4883 36.5274C30.4883 35.5581 30.8282 34.7415 31.5004 34.068C32.1811 33.3945 33.0142 33.0625 33.9901 33.0625C34.9755 33.0625 35.8085 33.3945 36.4798 34.068ZM32.5658 38.0529C32.9505 38.466 33.4255 38.6721 33.9901 38.6721C34.5633 38.6721 35.0383 38.466 35.4144 38.0529C35.7991 37.6399 35.9876 37.1285 35.9876 36.5274C35.9876 35.9264 35.7991 35.4236 35.4144 35.0106C35.0383 34.5889 34.5633 34.3819 33.9901 34.3819C33.4169 34.3819 32.9419 34.588 32.5572 35.0011C32.1811 35.4141 31.9926 35.9255 31.9926 36.5266C31.9926 37.1276 32.1811 37.6304 32.5658 38.0529Z" fill="#425378"/>
<path d="M39.8103 39.8927C39.318 39.8927 38.9238 39.534 38.9238 39.0942V33.9606C38.9238 33.5027 39.318 33.1621 39.8103 33.1621H41.664C42.2638 33.1621 42.757 33.3415 43.1597 33.7011C43.5625 34.0512 43.769 34.5082 43.769 35.0739C43.769 35.6034 43.4825 36.1329 43.0435 36.4649C43.6615 36.8331 43.9747 37.3445 43.9747 37.9904C43.9747 38.5561 43.769 39.014 43.3654 39.3641C42.9627 39.7142 42.4695 39.8936 41.8697 39.8936H39.8103V39.8927ZM40.3481 35.9078H41.5487C42.0057 35.9078 42.337 35.5844 42.337 35.1541C42.337 34.723 42.0057 34.391 41.5487 34.391H40.3481V35.9078ZM40.3481 38.663H41.7544C42.1933 38.663 42.5427 38.331 42.5427 37.9093C42.5427 37.479 42.1933 37.147 41.7544 37.147H40.3481V38.663Z" fill="#425378"/>
<path d="M45.3809 33.1621H46.868V37.398C46.868 38.2146 47.325 38.6725 48.1038 38.6725C48.8827 38.6725 49.3396 38.2146 49.3396 37.398V33.1621H50.8268V37.4971C50.8268 38.2603 50.5849 38.8709 50.0927 39.3279C49.6004 39.7772 48.9369 40.0014 48.1047 40.0014C47.2725 40.0014 46.6089 39.7772 46.1167 39.3279C45.6244 38.87 45.3826 38.2603 45.3826 37.4971V33.1621H45.3809Z" fill="#425378"/>
<path d="M52.4099 39.8927V38.6182H54.8644C55.3566 38.6182 55.6707 38.3224 55.6707 37.9007C55.6707 37.4523 55.3127 37.21 54.5872 37.1738C53.0734 37.0746 52.2051 36.4201 52.2051 35.1636C52.2051 34.616 52.4108 34.1409 52.823 33.7545C53.2438 33.3596 53.7542 33.1621 54.3635 33.1621H56.916V34.4367H54.4711C53.996 34.4367 53.6741 34.7419 53.6741 35.1455C53.6741 35.6034 54.0321 35.8457 54.749 35.8811C56.2628 35.9803 57.1312 36.6348 57.1312 37.8912C57.1312 38.4388 56.9255 38.914 56.5133 39.3089C56.101 39.6944 55.5907 39.8919 54.9909 39.8919H52.4099V39.8927Z" fill="#425378"/>
<path d="M58.5859 39.8927V33.1621H60.0636V39.8927H58.5859Z" fill="#425378"/>
<path d="M61.793 39.8927V33.871C61.793 33.4312 62.1785 33.0811 62.6708 33.0811C63.0107 33.0811 63.262 33.2156 63.4316 33.4846L66.0203 37.3083V33.1621H67.4265V39.1839C67.4265 39.6237 67.0504 39.9738 66.5487 39.9738C66.1993 39.9738 65.9488 39.8393 65.787 39.5788L63.2078 35.7466V39.8927H61.793Z" fill="#425378"/>
<path d="M73.7487 39.8927H70.0231C69.5309 39.8927 69.1367 39.534 69.1367 39.0942V33.9606C69.1367 33.5208 69.5309 33.1621 70.0231 33.1621H73.7487V34.3918H70.5602V35.9087H73.5516V37.147H70.5602V38.6639H73.7487V39.8927Z" fill="#425378"/>
<path d="M75.2517 39.8927V38.6182H77.7061C78.1984 38.6182 78.5125 38.3224 78.5125 37.9007C78.5125 37.4523 78.1545 37.21 77.429 37.1738C75.9152 37.0746 75.0469 36.4201 75.0469 35.1636C75.0469 34.616 75.2526 34.1409 75.6648 33.7545C76.0856 33.3596 76.596 33.1621 77.2053 33.1621H79.7578V34.4367H77.3129C76.8378 34.4367 76.5159 34.7419 76.5159 35.1455C76.5159 35.6034 76.8739 35.8457 77.5908 35.8811C79.1046 35.9803 79.973 36.6348 79.973 37.8912C79.973 38.4388 79.7673 38.914 79.3551 39.3089C78.9428 39.6944 78.4325 39.8919 77.8327 39.8919H75.2517V39.8927Z" fill="#425378"/>
<path d="M81.3415 39.8927V38.6182H83.796C84.2883 38.6182 84.6024 38.3224 84.6024 37.9007C84.6024 37.4523 84.2444 37.21 83.5189 37.1738C82.0051 37.0746 81.1367 36.4201 81.1367 35.1636C81.1367 34.616 81.3424 34.1409 81.7546 33.7545C82.1755 33.3596 82.6858 33.1621 83.2951 33.1621H85.8477V34.4367H83.4027C82.9276 34.4367 82.6058 34.7419 82.6058 35.1455C82.6058 35.6034 82.9638 35.8457 83.6807 35.8811C85.1945 35.9803 86.0628 36.6348 86.0628 37.8912C86.0628 38.4388 85.8571 38.914 85.4449 39.3089C85.0327 39.6944 84.5223 39.8919 83.9225 39.8919H81.3415V39.8927Z" fill="#425378"/>
<path d="M19.3464 10.7828H6.48467V0H0V28.0642H6.48467V17.2797H19.3464V10.7828Z" fill="#4B9A9D"/>
<path d="M86.0612 8.63986C86.0612 3.87625 82.1928 0 77.438 0H57.5029V21.5665H36.449V20.3669C36.449 19.8469 36.7803 19.3899 37.2735 19.2278L50.1499 15.0117C53.3152 13.9735 55.4426 11.0329 55.4426 7.69559C55.4426 3.45198 51.9967 0 47.7617 0H21.4082V28.0642H27.8929V6.49779H47.7617C48.4218 6.49779 48.9579 7.03503 48.9579 7.69559C48.9579 8.21559 48.6257 8.67349 48.1335 8.83561L35.2588 13.0516C32.0918 14.0882 29.9643 17.0279 29.9643 20.3669V28.0634H63.9867V17.2797H77.438C78.617 17.2797 79.5766 18.2412 79.5766 19.4227C79.5766 20.6049 78.617 21.5665 77.438 21.5665H66.0487V28.0642H77.438C82.1928 28.0642 86.0612 24.188 86.0612 19.4227C86.0612 17.3849 85.3538 15.5093 84.1722 14.0313C85.3538 12.5532 86.0612 10.6776 86.0612 8.63986ZM77.438 10.7828H63.9867V6.49779H77.438C78.617 6.49779 79.5766 7.45931 79.5766 8.64072C79.5766 9.82214 78.6179 10.7828 77.438 10.7828Z" fill="#4B9A9D"/>
</svg>
