<svg width="116" height="55" fill="none" xmlns="http://www.w3.org/2000/svg"><path d="M.5 53.856v-9.087h1.99v3.648h3.37v-3.648h1.978v9.087H5.86v-3.648H2.491v3.648H.5Z"/><path d="M16.287 53.856H11.3c-.659 0-1.186-.485-1.186-1.078v-6.93c0-.594.527-1.078 1.186-1.078h4.987v1.66H12.02v2.047h4.004v1.672H12.02v2.048h4.268v1.659Z"/><path d="M24.006 53.856H19.57c-.659 0-1.187-.485-1.187-1.078V44.77h1.991v7.317h3.632v1.769Z"/><path d="M25.634 53.856v-8.009c0-.593.528-1.078 1.187-1.078h2.146c.911 0 1.678.303 2.314.921.636.619.947 1.358.947 2.241 0 .872-.312 1.611-.947 2.23-.634.618-1.403.92-2.314.92h-1.39v2.775h-1.943Zm1.942-4.446h1.307c.815 0 1.45-.654 1.45-1.479 0-.412-.144-.763-.42-1.054a1.367 1.367 0 0 0-1.03-.437h-1.306v2.97Z"/><path d="M36.052 53.853v-7.318h-2.481v-1.77h6.953v1.77h-2.481v7.318h-1.99Z"/><path d="M49.331 45.992c.9.91 1.355 2.012 1.355 3.32 0 1.297-.455 2.411-1.355 3.32-.9.909-2.015 1.37-3.333 1.37-1.306 0-2.42-.449-3.332-1.358-.9-.908-1.355-2.023-1.355-3.332 0-1.308.455-2.41 1.355-3.32.911-.909 2.026-1.357 3.333-1.357 1.319 0 2.434.448 3.332 1.357Zm-5.239 5.38c.515.557 1.15.836 1.907.836.767 0 1.403-.279 1.906-.836.515-.558.767-1.248.767-2.06 0-.811-.252-1.49-.767-2.047-.503-.57-1.14-.85-1.907-.85-.767 0-1.403.28-1.917.837-.504.557-.756 1.248-.756 2.06 0 .81.252 1.49.767 2.06Z"/><path d="M53.789 53.856c-.659 0-1.187-.485-1.187-1.078v-6.93c0-.619.528-1.078 1.187-1.078h2.481c.803 0 1.463.242 2.002.727.54.473.816 1.09.816 1.853 0 .715-.384 1.43-.971 1.878.827.497 1.246 1.188 1.246 2.06 0 .763-.275 1.381-.815 1.854-.54.473-1.2.715-2.002.715h-2.757v-.001Zm.72-5.38h1.607c.612 0 1.055-.436 1.055-1.017 0-.582-.443-1.03-1.055-1.03h-1.607v2.047Zm0 3.72h1.882c.588 0 1.056-.449 1.056-1.018 0-.58-.468-1.029-1.056-1.029H54.51v2.047Z"/><path d="M61.245 44.77h1.99v5.718c0 1.102.612 1.72 1.655 1.72 1.042 0 1.654-.618 1.654-1.72V44.77h1.99v5.852c0 1.03-.323 1.854-.982 2.471-.66.607-1.547.91-2.661.91s-2.002-.303-2.661-.91c-.66-.618-.983-1.441-.983-2.471V44.77h-.002Z"/><path d="M70.653 53.856v-1.72h3.286c.659 0 1.079-.4 1.079-.97 0-.605-.48-.932-1.45-.98-2.027-.135-3.189-1.018-3.189-2.715 0-.739.275-1.38.827-1.902.563-.533 1.247-.8 2.062-.8h3.417v1.721h-3.273c-.636 0-1.067.412-1.067.957 0 .618.48.945 1.44.993 2.026.134 3.188 1.018 3.188 2.714 0 .739-.275 1.38-.827 1.913-.552.52-1.235.788-2.038.788h-3.455Z"/><path d="M78.922 53.856v-9.087H80.9v9.087h-1.978Z"/><path d="M83.213 53.854v-8.13c0-.593.517-1.066 1.175-1.066.455 0 .792.182 1.019.545l3.465 5.162v-5.597h1.882v8.129c0 .594-.503 1.066-1.175 1.066-.467 0-.803-.181-1.02-.533l-3.452-5.173v5.597h-1.894Z"/><path d="M99.217 53.856H94.23c-.659 0-1.187-.485-1.187-1.078v-6.93c0-.594.528-1.078 1.187-1.078h4.987v1.66h-4.268v2.047h4.004v1.672H94.95v2.048h4.268v1.659Z"/><path d="M101.229 53.856v-1.72h3.286c.659 0 1.079-.4 1.079-.97 0-.605-.479-.932-1.45-.98-2.026-.135-3.189-1.018-3.189-2.715 0-.739.276-1.38.827-1.902.564-.533 1.247-.8 2.062-.8h3.417v1.721h-3.273c-.635 0-1.066.412-1.066.957 0 .618.479.945 1.439.993 2.026.134 3.188 1.018 3.188 2.714 0 .739-.275 1.38-.827 1.913-.552.52-1.235.788-2.038.788h-3.455Z"/><path d="M109.38 53.856v-1.72h3.285c.659 0 1.08-.4 1.08-.97 0-.605-.48-.932-1.451-.98-2.026-.135-3.188-1.018-3.188-2.715 0-.739.275-1.38.827-1.902.563-.533 1.246-.8 2.062-.8h3.417v1.721h-3.273c-.636 0-1.067.412-1.067.957 0 .618.479.945 1.439.993 2.026.134 3.189 1.018 3.189 2.714 0 .739-.276 1.38-.828 1.913-.551.52-1.234.788-2.037.788h-3.455Z"/><path d="M26.396 14.556H9.18V0H.5v37.886h8.68V23.327h17.216v-8.77Z"/><path d="M115.697 11.664C115.697 5.233 110.519 0 104.155 0H77.47v29.114H49.29v-1.62c0-.701.443-1.318 1.103-1.537l17.236-5.692c4.237-1.401 7.085-5.37 7.085-9.876C74.713 4.66 70.1 0 64.43 0H29.155v37.886h8.68V8.772h26.596a1.61 1.61 0 0 1 1.601 1.617c0 .702-.444 1.32-1.103 1.539l-17.234 5.691c-4.239 1.4-7.087 5.368-7.087 9.876v10.39H86.15V23.327h18.006c1.578 0 2.862 1.298 2.862 2.893 0 1.596-1.284 2.894-2.862 2.894H88.909v8.772h15.246c6.364 0 11.542-5.233 11.542-11.666 0-2.75-.946-5.283-2.528-7.278a11.68 11.68 0 0 0 2.528-7.278Zm-11.542 2.893H86.149V8.771h18.006c1.578 0 2.862 1.298 2.862 2.893 0 1.595-1.283 2.892-2.862 2.892Z"/></svg>