<svg width="158" height="43" fill="none" xmlns="http://www.w3.org/2000/svg"><g clip-path="url(#clip0_1626_9800)"><path d="M153.353 0H3.77588V42.7095H153.353V0Z" fill="black"/><path d="M89.8229 15.9961H81.9897C79.2729 15.9961 78.4814 16.8143 78.4814 19.5845V23.5424C78.4814 26.3126 79.2729 27.1304 81.9897 27.1304H89.8229C92.5397 27.1304 93.3308 26.3126 93.3308 23.5424V19.5845C93.3308 16.8143 92.5397 15.9961 89.8229 15.9961Z" fill="#065137"/><path d="M145.819 15.4152C145.819 15.8115 145.608 15.9959 145.212 15.9959H133.686C130.944 15.9959 130.178 16.814 130.178 19.5842V19.8484H145.08C145.476 19.8484 145.66 20.0324 145.66 20.4283V22.5129C145.66 22.9088 145.476 23.0932 145.08 23.0932H130.178V23.5422C130.178 26.3124 130.944 27.1301 133.686 27.1301H145.212C145.608 27.1301 145.819 27.3149 145.819 27.7108V30.2169C145.819 30.6129 145.608 30.7977 145.212 30.7977H133.607C128.279 30.7977 126.222 28.8978 126.222 23.8319V19.2941C126.222 14.2282 128.279 12.3285 133.607 12.3285H145.212C145.608 12.3285 145.819 12.5132 145.819 12.9087V15.4152ZM122.924 28.0537C122.924 30.1905 122.159 30.7977 120.55 30.7977H118.282C116.673 30.7977 116.277 30.6397 115.222 29.2407L105.384 16.3654C105.279 16.2333 105.2 16.181 105.041 16.181H104.805C104.646 16.181 104.593 16.2597 104.593 16.4448V30.2169C104.593 30.6129 104.408 30.7977 104.013 30.7977H101.244C100.848 30.7977 100.637 30.6129 100.637 30.2169V15.0723C100.637 12.9355 101.402 12.3285 103.011 12.3285H105.332C107.02 12.3285 107.389 12.5396 108.391 13.8854L118.203 26.761C118.282 26.8923 118.387 26.9457 118.545 26.9457H118.783C118.915 26.9457 118.994 26.8659 118.994 26.6815V12.9087C118.994 12.5132 119.179 12.3285 119.574 12.3285H122.343C122.739 12.3285 122.924 12.5132 122.924 12.9087V28.0537ZM97.3659 23.8319C97.3659 28.8978 95.3351 30.7977 89.9811 30.7977H81.8308C76.5029 30.7977 74.4457 28.8978 74.4457 23.8319V19.2941C74.4457 14.2282 76.5029 12.3285 81.8308 12.3285H89.9811C95.3351 12.3285 97.3659 14.2282 97.3659 19.2941V23.8319ZM41.361 30.2169C41.361 30.6129 41.1504 30.7977 40.7546 30.7977H38.0642C37.6686 30.7977 37.4842 30.6129 37.4842 30.2169V16.4448C37.4842 16.2597 37.431 16.181 37.273 16.181H37.0357C36.851 16.181 36.7453 16.2333 36.693 16.3917L31.3649 28.2117C30.4947 30.1114 29.7561 30.7977 27.9887 30.7977H26.7227C24.9557 30.7977 24.2172 30.1114 23.347 28.2117L18.0188 16.3917C17.9665 16.2333 17.8608 16.181 17.6761 16.181H17.4387C17.2807 16.181 17.2276 16.2597 17.2276 16.4448V30.2169C17.2276 30.6129 17.0429 30.7977 16.6475 30.7977H13.9573C13.5619 30.7977 13.3504 30.6129 13.3504 30.2169V15.0723C13.3504 13.0676 13.8252 12.3285 15.698 12.3285H18.573C20.1553 12.3285 20.6827 12.6713 21.3949 14.3336L26.8811 26.9984C26.9601 27.1824 27.0658 27.2355 27.2506 27.2355H27.567C27.7517 27.2355 27.857 27.1824 27.936 26.9984L33.4224 14.3336C34.1345 12.6713 34.662 12.3285 36.2179 12.3285H39.0401C40.8861 12.3285 41.361 13.0676 41.361 15.0723V30.2169ZM153.84 0.0761719H48.8265V23.4364C48.8265 26.2326 49.6177 27.0511 52.3342 27.0511H62.4305C62.8258 27.0511 63.0105 27.2355 63.0105 27.6318V30.2169C63.0105 30.6129 62.8258 30.7977 62.4305 30.7977H52.1762C46.848 30.7977 44.7908 28.8978 44.7908 23.8319V0.0761719H4.31034C2.02981 0.0761719 0.180664 1.92556 0.180664 4.20688V38.7077C0.180664 40.989 2.02981 42.8389 4.31034 42.8389H153.84C156.121 42.8389 157.97 40.989 157.97 38.7077V4.20688C157.97 1.92556 156.121 0.0761719 153.84 0.0761719Z" fill="#065137"/></g><defs><clipPath id="clip0_1626_9800"><rect width="158" height="43" fill="white"/></clipPath></defs></svg>