<svg width="132" height="85" fill="none" xmlns="http://www.w3.org/2000/svg"><path d="M6.57087 81.8886H4.85934V75.9952H1.71166V81.8886H0V74.5525H6.57087V81.8886Z" fill="black"/><path d="M9.47464 79.7297C9.53111 80.4902 10.0275 80.8704 10.9638 80.8704C11.5606 80.8704 12.0853 80.734 12.5376 80.4612V81.6276C12.0359 81.8868 11.3841 82.0164 10.5823 82.0164C9.70618 82.0164 9.02609 81.7821 8.54217 81.3131C8.05812 80.8442 7.81623 80.1901 7.81623 79.3512C7.81623 78.4815 8.07762 77.7925 8.60053 77.2844C9.1233 76.7763 9.76628 76.5222 10.5293 76.5222C11.3206 76.5222 11.9327 76.7491 12.3655 77.2027C12.7982 77.6562 13.0147 78.2718 13.0147 79.0493V79.7297H9.47464ZM11.4618 78.7373C11.4618 77.987 11.1474 77.6117 10.5186 77.6117C10.2501 77.6117 10.0177 77.7193 9.82168 77.934C9.62564 78.1487 9.50637 78.4167 9.46402 78.7373H11.4618Z" fill="black"/><path d="M15.7064 81.2797H15.6852V84.2979H14.0106V76.6499H15.6852V77.4377H15.7064C16.1197 76.8273 16.7009 76.5219 17.4498 76.5219C18.1528 76.5219 18.696 76.7547 19.0793 77.2202C19.4626 77.6857 19.6543 78.3192 19.6543 79.1207C19.6543 79.9938 19.4308 80.6947 18.9838 81.2233C18.5369 81.752 17.9426 82.0162 17.2008 82.0162C16.5472 82.0164 16.049 81.7709 15.7064 81.2797ZM15.6587 79.1312V79.5506C15.6587 79.9122 15.7575 80.2073 15.9554 80.4356C16.1532 80.6642 16.4129 80.7785 16.7343 80.7785C17.1158 80.7785 17.4117 80.6361 17.6219 80.3513C17.8321 80.0665 17.9372 79.6631 17.9372 79.1414C17.9372 78.2205 17.5662 77.7601 16.8244 77.7601C16.4817 77.7601 16.2018 77.8856 15.9845 78.1362C15.7672 78.3869 15.6587 78.7186 15.6587 79.1312Z" fill="black"/><path d="M20.7405 81.8886V76.6501H23.7715C25.0645 76.6501 25.711 77.0764 25.711 77.929C25.711 78.2326 25.6094 78.4892 25.4063 78.6989C25.2031 78.9088 24.939 79.0461 24.614 79.1108C25.0132 79.1585 25.3267 79.2924 25.5546 79.5123C25.7825 79.7321 25.8964 80.0009 25.8964 80.318C25.8964 80.7921 25.7214 81.1723 25.3717 81.4587C25.022 81.7452 24.5416 81.8884 23.9304 81.8884L20.7405 81.8886ZM22.4151 77.6374V78.7374H23.2364C23.7452 78.7374 23.9994 78.5447 23.9994 78.1592C23.9994 77.8114 23.7591 77.6374 23.2787 77.6374H22.4151ZM22.4151 80.8807H23.3796C23.913 80.8807 24.1797 80.6727 24.1797 80.2565C24.1797 79.878 23.906 79.6885 23.3585 79.6885H22.4151V80.8807Z" fill="black"/><path d="M27.0305 81.8886V76.6501H28.7051V78.4815H30.1359C30.7506 78.4815 31.2293 78.6255 31.5719 78.9138C31.9145 79.2021 32.0859 79.6069 32.0859 80.1288C32.0859 80.6642 31.9164 81.0914 31.5773 81.4102C31.2382 81.7291 30.7682 81.8886 30.1677 81.8886H27.0305ZM28.7051 79.4995V80.8602H29.5159C30.081 80.8602 30.3638 80.6267 30.3638 80.1594C30.3638 79.7195 30.0883 79.4995 29.5371 79.4995H28.7051ZM34.4652 81.8886H32.7854V76.6501H34.4652V81.8886Z" fill="black"/><path d="M41.2692 81.8886H39.7483V78.4611C39.6105 78.7305 39.4622 78.9794 39.3031 79.208L37.459 81.8887H35.8746V76.6502H37.406V79.9702C37.519 79.7418 37.6427 79.5287 37.777 79.3307L39.621 76.6501H41.269V81.8886H41.2692ZM40.8771 74.1484C40.8135 74.6906 40.5716 75.1221 40.1512 75.4426C39.7307 75.7633 39.2097 75.9236 38.5879 75.9236C37.9554 75.9236 37.4292 75.7633 37.0087 75.4426C36.5883 75.1221 36.3622 74.6906 36.3305 74.1484H37.5492C37.5669 74.411 37.6781 74.6267 37.8831 74.7955C38.0879 74.9643 38.3299 75.0488 38.6091 75.0488C38.8846 75.0488 39.1231 74.9635 39.3245 74.793C39.5259 74.6225 39.6371 74.4077 39.6582 74.1484H40.8771Z" fill="black"/><path d="M45.8423 81.8886V74.5525H50.7332V75.9082H47.5538V77.5094H49.0217C49.8342 77.5094 50.4621 77.691 50.9056 78.0543C51.3489 78.4175 51.5706 78.9197 51.5706 79.5608C51.5706 80.2975 51.3348 80.8696 50.8632 81.2772C50.3917 81.6847 49.723 81.8886 48.8575 81.8886H45.8423ZM47.5539 78.7117V80.6811H48.5555C49.3574 80.6811 49.7584 80.3435 49.7584 79.6682C49.7584 79.0306 49.375 78.7117 48.6085 78.7117H47.5539Z" fill="black"/><path d="M57.8129 76.6501L55.6084 82.3081C55.0785 83.6688 54.2801 84.3493 53.2133 84.3493C52.8071 84.3493 52.4732 84.3049 52.2117 84.2163V82.9271C52.4342 83.0532 52.6763 83.1163 52.9377 83.1163C53.3686 83.1163 53.6688 82.9203 53.8385 82.5281L54.1247 81.8783L51.9202 76.6501H53.7749L54.787 79.8371C54.8506 80.0351 54.8999 80.2686 54.9354 80.5381H54.9566C54.9884 80.3403 55.0466 80.1099 55.1315 79.8473L56.1542 76.6501H57.8129Z" fill="black"/><path d="M60.1816 81.2797H60.1604V84.2979H58.486V76.6499H60.1605V77.4377H60.1818C60.5951 76.8273 61.1762 76.5219 61.9252 76.5219C62.6281 76.5219 63.1713 76.7547 63.5547 77.2202C63.938 77.6857 64.1296 78.3192 64.1296 79.1207C64.1296 79.9938 63.9061 80.6947 63.4592 81.2233C63.0123 81.752 62.4179 82.0162 61.6761 82.0162C61.0223 82.0164 60.5242 81.7709 60.1816 81.2797ZM60.1339 79.1312V79.5506C60.1339 79.9122 60.2327 80.2073 60.4306 80.4356C60.6284 80.6642 60.8881 80.7785 61.2096 80.7785C61.591 80.7785 61.887 80.6361 62.0971 80.3513C62.3073 80.0665 62.4124 79.6631 62.4124 79.1414C62.4124 78.2205 62.0415 77.7601 61.2996 77.7601C60.9569 77.7601 60.677 77.8856 60.4597 78.1362C60.2424 78.3869 60.1339 78.7186 60.1339 79.1312Z" fill="black"/><path d="M67.8017 82.0164C66.8973 82.0164 66.1863 81.7719 65.6689 81.2823C65.1512 80.7929 64.8925 80.1288 64.8925 79.2897C64.8925 78.4236 65.161 77.7458 65.6981 77.2563C66.235 76.7669 66.961 76.5222 67.8759 76.5222C68.7768 76.5222 69.4832 76.7669 69.9956 77.2563C70.5078 77.7458 70.7639 78.3929 70.7639 79.1976C70.7639 80.0673 70.4999 80.7545 69.9717 81.2593C69.4436 81.7641 68.7202 82.0164 67.8017 82.0164ZM67.844 77.7601C67.4484 77.7601 67.1409 77.8915 66.922 78.1541C66.703 78.4168 66.5936 78.7885 66.5936 79.2694C66.5936 80.2755 67.0139 80.7786 67.8548 80.7786C68.6567 80.7786 69.0577 80.2619 69.0577 79.2286C69.0577 78.2496 68.6531 77.7601 67.844 77.7601Z" fill="black"/><path d="M71.8501 81.8886V76.6501H74.8812C76.1742 76.6501 76.8208 77.0764 76.8208 77.929C76.8208 78.2326 76.7191 78.4892 76.516 78.6989C76.3128 78.9088 76.0487 79.0461 75.7237 79.1108C76.1229 79.1585 76.4365 79.2924 76.6643 79.5123C76.892 79.7321 77.0061 80.0009 77.0061 80.318C77.0061 80.7921 76.8311 81.1723 76.4815 81.4587C76.1317 81.7452 75.6513 81.8884 75.0401 81.8884L71.8501 81.8886ZM73.5247 77.6374V78.7374H74.3459C74.8546 78.7374 75.109 78.5447 75.109 78.1592C75.109 77.8114 74.8688 77.6374 74.3884 77.6374H73.5247ZM73.5247 80.8807H74.4891C75.0225 80.8807 75.2893 80.6727 75.2893 80.2565C75.2893 79.878 75.0154 79.6885 74.4679 79.6885H73.5247V80.8807Z" fill="black"/><path d="M80.7261 82.0164C79.8218 82.0164 79.1107 81.7719 78.5933 81.2823C78.0757 80.7929 77.8171 80.1288 77.8171 79.2897C77.8171 78.4236 78.0855 77.7458 78.6225 77.2563C79.1594 76.7669 79.8855 76.5222 80.8003 76.5222C81.7012 76.5222 82.4077 76.7669 82.9201 77.2563C83.4323 77.7458 83.6884 78.3929 83.6884 79.1976C83.6884 80.0673 83.4243 80.7545 82.8962 81.2593C82.368 81.7641 81.6446 82.0164 80.7261 82.0164ZM80.7685 77.7601C80.3729 77.7601 80.0654 77.8915 79.8465 78.1541C79.6275 78.4168 79.518 78.7885 79.518 79.2694C79.518 80.2755 79.9383 80.7786 80.7792 80.7786C81.5812 80.7786 81.9821 80.2619 81.9821 79.2286C81.9821 78.2496 81.5775 77.7601 80.7685 77.7601Z" fill="black"/><path d="M90.169 81.8886H88.6482V78.4611C88.5105 78.7305 88.362 78.9794 88.203 79.208L86.3589 81.8887H84.7744V76.6502H86.3059V79.9702C86.419 79.7418 86.5425 79.5287 86.6769 79.3307L88.521 76.6501H90.169V81.8886ZM89.777 74.1484C89.7132 74.6906 89.4713 75.1221 89.051 75.4426C88.6306 75.7633 88.1095 75.9236 87.4878 75.9236C86.8554 75.9236 86.329 75.7633 85.9087 75.4426C85.4883 75.1221 85.2621 74.6906 85.2304 74.1484H86.4491C86.4667 74.411 86.578 74.6267 86.7828 74.7955C86.9876 74.9642 87.2298 75.0488 87.5088 75.0488C87.7844 75.0488 88.0228 74.9635 88.2241 74.793C88.4255 74.6224 88.5367 74.4077 88.558 74.1484H89.777Z" fill="black"/><path d="M101.313 81.8886H99.6015V75.9952H96.4538V81.8886H94.7423V74.5525H101.313L101.313 81.8886Z" fill="black"/><path d="M105.467 82.0164C104.563 82.0164 103.852 81.7719 103.335 81.2823C102.817 80.7929 102.558 80.1288 102.558 79.2897C102.558 78.4236 102.827 77.7458 103.364 77.2563C103.901 76.7669 104.627 76.5222 105.542 76.5222C106.443 76.5222 107.149 76.7669 107.661 77.2563C108.174 77.7458 108.43 78.3929 108.43 79.1976C108.43 80.0673 108.166 80.7545 107.638 81.2593C107.109 81.7641 106.386 82.0164 105.467 82.0164ZM105.51 77.7601C105.114 77.7601 104.807 77.8915 104.588 78.1541C104.369 78.4168 104.259 78.7885 104.259 79.2694C104.259 80.2755 104.68 80.7786 105.521 80.7786C106.323 80.7786 106.723 80.2619 106.723 79.2286C106.723 78.2496 106.319 77.7601 105.51 77.7601Z" fill="black"/><path d="M111.212 81.2797H111.19V84.2979H109.516V76.6499H111.19V77.4377H111.212C111.625 76.8273 112.206 76.5219 112.955 76.5219C113.658 76.5219 114.201 76.7547 114.584 77.2202C114.968 77.6857 115.159 78.3192 115.159 79.1207C115.159 79.9938 114.936 80.6947 114.489 81.2233C114.042 81.752 113.448 82.0162 112.706 82.0162C112.052 82.0164 111.554 81.7709 111.212 81.2797ZM111.164 79.1312V79.5506C111.164 79.9122 111.263 80.2073 111.461 80.4356C111.659 80.6642 111.918 80.7785 112.24 80.7785C112.621 80.7785 112.917 80.6361 113.127 80.3513C113.338 80.0665 113.443 79.6631 113.443 79.1414C113.443 78.2205 113.072 77.7601 112.33 77.7601C111.987 77.7601 111.707 77.8856 111.49 78.1362C111.273 78.3869 111.164 78.7186 111.164 79.1312Z" fill="black"/><path d="M120.151 77.8778H118.699V81.8886H117.014V77.8778H115.552V76.6501H120.151V77.8778Z" fill="black"/><path d="M125.54 81.8886H123.956V81.1365H123.935C123.571 81.723 123.032 82.0164 122.319 82.0164C121.792 82.0164 121.378 81.8724 121.076 81.5841C120.774 81.2959 120.623 80.9114 120.623 80.4305C120.623 79.4143 121.246 78.8276 122.493 78.6707L123.967 78.4815C123.967 77.9084 123.645 77.6219 123.002 77.6219C122.356 77.6219 121.741 77.8079 121.158 78.1795V76.962C121.391 76.8461 121.71 76.7438 122.115 76.655C122.519 76.5664 122.887 76.522 123.219 76.522C124.767 76.522 125.54 77.2672 125.54 78.7577V81.8886ZM123.967 79.7605V79.4074L122.981 79.5302C122.437 79.5985 122.165 79.8355 122.165 80.2413C122.165 80.4254 122.231 80.5764 122.364 80.694C122.496 80.8117 122.675 80.8704 122.902 80.8704C123.216 80.8704 123.472 80.7656 123.67 80.5558C123.868 80.3461 123.967 80.0809 123.967 79.7605Z" fill="black"/><path d="M132 81.8886H130.315V77.7908H129.393C129.199 79.3767 128.908 80.4663 128.521 81.0598C128.134 81.6533 127.593 81.95 126.897 81.95C126.657 81.95 126.44 81.9159 126.245 81.8476V80.7477C126.369 80.8023 126.5 80.8294 126.637 80.8294C126.969 80.8294 127.245 80.5311 127.464 79.9342C127.683 79.3375 127.881 78.2427 128.058 76.6499H132V81.8886Z" fill="black"/><path d="M37.0491 67.4288C35.4674 67.4288 34.1807 66.142 34.1807 64.5602V4.12232C34.1807 2.54068 35.4674 1.25391 37.0491 1.25391H97.487C99.0687 1.25391 100.356 2.54068 100.356 4.12232V64.5602C100.356 66.142 99.0687 67.4288 97.487 67.4288H37.0491Z" fill="#010202"/><path d="M97.4873 2.19492C98.5499 2.19492 99.4145 3.05949 99.4145 4.12212V64.56C99.4145 65.6227 98.5499 66.4872 97.4873 66.4872H37.0494C35.9866 66.4872 35.1222 65.6227 35.1222 64.56V4.12212C35.1222 3.05949 35.9867 2.19492 37.0494 2.19492H97.4873ZM97.4873 0.3125H37.0494C34.9541 0.3125 33.2397 2.02685 33.2397 4.12212V64.56C33.2397 66.6553 34.9541 68.3697 37.0494 68.3697H97.4873C99.5825 68.3697 101.297 66.6553 101.297 64.56V4.12212C101.297 2.02685 99.5827 0.3125 97.4873 0.3125Z" fill="#FAB95C"/><path d="M45.9014 29.4034C46.3942 29.4047 46.8869 29.4061 47.3797 29.4074C47.3804 24.1327 47.3811 18.8581 47.3819 13.5832C60.1999 13.5828 73.0177 13.5824 85.8356 13.582C85.8369 23.3893 85.8379 33.1966 85.8391 43.004C86.2713 44.5959 86.7033 46.1876 87.1355 47.7795V57.1916C86.494 57.1958 85.8525 57.2 85.2111 57.2043C84.5724 56.3205 83.9337 55.4367 83.295 54.5529C82.6531 55.4348 82.0111 56.3167 81.3692 57.1986C80.9318 57.1977 80.4944 57.1969 80.0571 57.1959C79.4152 56.3149 78.7733 55.434 78.1314 54.5531C77.4905 55.4341 76.8495 56.3151 76.2084 57.1959C75.5678 57.1958 74.9274 57.1956 74.2868 57.1955C74.289 54.0956 74.2911 50.9956 74.2933 47.8958C74.7084 46.2659 75.1234 44.6361 75.5384 43.0062V23.8458H57.5993V29.3586C58.1061 29.3588 58.613 29.359 59.1197 29.3592C59.1197 31.3691 59.1197 33.3789 59.1197 35.3888C54.7137 35.3882 50.3074 35.3876 45.9014 35.387V29.4034Z" fill="#FAB95C"/><path d="M45.9224 37.1875V43.2381C46.4154 43.2344 46.9084 43.2306 47.4014 43.227C47.3976 48.1459 47.3939 53.0649 47.3902 57.9838C50.8078 57.9876 54.2252 57.9914 57.6427 57.995V43.2381H59.1218V37.1875H45.9224Z" fill="#FAB95C"/></svg>