<svg width="117" height="116" fill="none" xmlns="http://www.w3.org/2000/svg"><path d="M58.5 35.167c-5.75 0-10.416 4.667-10.416 10.417S52.751 56 58.501 56s10.416-4.666 10.416-10.416-4.666-10.417-10.416-10.417Zm4.522 9.396-5.625 5.625c-.209.208-.646.416-.938.479l-2.146.292c-.791.104-1.333-.438-1.208-1.209l.312-2.145c.042-.292.25-.73.48-.938l5.625-5.625c.958-.958 2.104-1.417 3.52 0 1.396 1.438.938 2.563-.02 3.52Z" fill="#E6E6E6" fill-opacity=".8"/><path d="M58.5 60.167c-10.438 0-18.938 7-18.938 15.625 0 .583.459 1.042 1.042 1.042h35.792c.583 0 1.041-.459 1.041-1.042 0-8.625-8.5-15.625-18.937-15.625Z" fill="#E6E6E6" fill-opacity=".8"/></svg>