<svg width="40" height="40" fill="none" xmlns="http://www.w3.org/2000/svg"><rect width="40" height="40" rx="20" fill="#fff"/><path d="M25.753 17.315a1.503 1.503 0 0 0-1.058-1.058C23.756 16 20 16 20 16s-3.756 0-4.695.247c-.504.139-.92.554-1.058 1.068C14 18.254 14 20.2 14 20.2s0 1.957.247 2.886c.139.514.544.92 1.058 1.058.949.257 4.695.257 4.695.257s3.756 0 4.695-.247c.514-.139.92-.544 1.058-1.058.247-.939.247-2.886.247-2.886s.01-1.957-.247-2.896ZM18.804 22v-3.598l3.123 1.799L18.804 22Z" fill="#000"/></svg>