<svg width="90" height="90" fill="none" xmlns="http://www.w3.org/2000/svg"><path d="M80.8508 40.2746L75.7508 34.3496C74.7758 33.2246 73.9883 31.1246 73.9883 29.6246V23.2496C73.9883 19.2746 70.7258 16.0121 66.7508 16.0121H60.3758C58.9133 16.0121 56.7758 15.2246 55.6508 14.2496L49.7258 9.14961C47.1383 6.93711 42.9008 6.93711 40.2758 9.14961L34.3883 14.2871C33.2633 15.2246 31.1258 16.0121 29.6633 16.0121H23.1758C19.2008 16.0121 15.9383 19.2746 15.9383 23.2496V29.6621C15.9383 31.1246 15.1508 33.2246 14.2133 34.3496L9.15078 40.3121C6.97578 42.8996 6.97578 47.0996 9.15078 49.6871L14.2133 55.6496C15.1508 56.7746 15.9383 58.8746 15.9383 60.3371V66.7496C15.9383 70.7246 19.2008 73.9871 23.1758 73.9871H29.6633C31.1258 73.9871 33.2633 74.7746 34.3883 75.7496L40.3133 80.8496C42.9008 83.0621 47.1383 83.0621 49.7633 80.8496L55.6883 75.7496C56.8133 74.7746 58.9133 73.9871 60.4133 73.9871H66.7883C70.7633 73.9871 74.0258 70.7246 74.0258 66.7496V60.3746C74.0258 58.9121 74.8133 56.7746 75.7883 55.6496L80.8883 49.7246C83.0633 47.1371 83.0633 42.8621 80.8508 40.2746ZM60.6008 37.9121L42.4883 56.0246C41.9633 56.5496 41.2508 56.8496 40.5008 56.8496C39.7508 56.8496 39.0383 56.5496 38.5133 56.0246L29.4383 46.9496C28.3508 45.8621 28.3508 44.0621 29.4383 42.9746C30.5258 41.8871 32.3258 41.8871 33.4133 42.9746L40.5008 50.0621L56.6258 33.9371C57.7133 32.8496 59.5133 32.8496 60.6008 33.9371C61.6883 35.0246 61.6883 36.8246 60.6008 37.9121Z" fill="url(#paint0_angular_1584_21577)"/><defs><radialGradient id="paint0_angular_1584_21577" cx="0" cy="0" r="1" gradientUnits="userSpaceOnUse" gradientTransform="translate(40 53) rotate(-41.6891) scale(42.8515 70.3768)"><stop stop-color="#1E2C2F"/><stop offset="1" stop-color="#426B6C"/></radialGradient></defs></svg>