<svg width="40" height="40" fill="none" xmlns="http://www.w3.org/2000/svg"><rect width="40" height="40" rx="20" fill="#fff"/><path fill-rule="evenodd" clip-rule="evenodd" d="M25.687 16.075a3.07 3.07 0 0 0-1.755-1.755 4.403 4.403 0 0 0-1.457-.28c-.642-.028-.846-.036-2.474-.036-1.628 0-1.836 0-2.473.036a4.37 4.37 0 0 0-1.456.28 3.068 3.068 0 0 0-1.755 1.755 4.39 4.39 0 0 0-.28 1.457c-.028.641-.037.845-.037 2.473s0 1.836.037 2.474c.01.498.104.99.28 1.458a3.074 3.074 0 0 0 1.756 1.754c.465.182.957.284 1.456.3.642.028.846.037 2.474.037 1.628 0 1.836 0 2.473-.037.498-.01.99-.104 1.457-.28a3.074 3.074 0 0 0 1.756-1.754c.175-.467.269-.96.279-1.458.029-.641.037-.844.037-2.473s0-1.835-.037-2.473a4.387 4.387 0 0 0-.28-1.478ZM20 22.003a2.002 2.002 0 1 1 0-4.004 2.002 2.002 0 0 1 0 4.004Zm2.294-4.296a1 1 0 1 0 1.414-1.414 1 1 0 0 0-1.414 1.414Z" fill="#000"/></svg>