<svg xmlns="http://www.w3.org/2000/svg" viewBox="0 0 40 40" style="enable-background:new 0 0 40 40" xml:space="preserve"><path d="M-3.8 20.1c0-12.7 10.3-23 23-23-12.7 0-23 10.3-23 23zm33.6-7.4c-.2 2.5-2.2 15.5-2.6 16.8-.4 1.1-.7 2.1-1.5 2.1s-1.5-.3-2.3-.8-6-4-6.7-4.5c-.6-.4-1.3-1.4-.4-2.4.5-.5 2.9-2.9 4.8-4.7 1.2-1.1 2.1-2.1 2.3-2.3.5-.5 0-1.1-.6-.6-.6.5-9.2 6.2-9.9 6.7-.7.4-1.9.7-3 .4-1.1-.3-3.1-.9-3.8-1.2-.7-.3-1-.5-1-1 0-.6.9-1.1 1.9-1.5 1-.4 18.4-7.8 19.8-8.3 1-.4 1.8-.5 2.4-.2.4.2.6.7.6 1.5z" style="fill-rule:evenodd;clip-rule:evenodd;fill:#fff"/></svg>