<svg width="703" height="888" fill="none" xmlns="http://www.w3.org/2000/svg"><path opacity="0.8" fill-rule="evenodd" clip-rule="evenodd" d="M45.8805 313.253C43.6581 312.437 41.844 310.509 41.2573 308.068C40.3184 304.162 42.7532 300.16 46.7246 299.245C65.2541 294.851 76.52 290.236 82.718 287.098C87.6581 245.587 100.386 205.899 120.541 169.014C141.414 130.983 169.118 97.9846 202.918 71.0097C264.308 22.0484 341.409 -3.03858 419.937 0.294018C423.964 0.438377 427.141 3.90566 426.932 7.90897C426.787 11.9363 423.32 15.1136 419.317 14.9039C344.31 11.6783 270.659 35.6582 212.001 82.4333C147.562 133.836 105.559 210.396 96.7886 292.416L96.3895 296.127L93.1824 297.991C86.208 302.031 73.0277 308.019 50.0386 313.446C48.6152 313.887 47.1878 313.734 45.8805 313.253ZM679.924 174.46C678.355 173.883 676.979 172.784 676.08 171.193C639.673 107.739 582.001 58.9502 513.696 33.8528C495.524 27.1762 476.663 22.175 457.701 19.0655C453.711 18.4155 451.029 14.6108 451.678 10.6208C452.328 6.63091 456.133 3.94851 460.123 4.59845C479.983 7.88951 499.718 13.1375 518.804 20.1504C590.378 46.4486 650.779 97.5009 688.836 163.935C690.823 167.41 689.606 171.934 686.131 173.921C684.093 175.027 681.885 175.18 679.924 174.46ZM30.3209 340.254C30.8597 342.826 32.6738 344.754 34.9615 345.595C36.2034 346.051 37.6308 346.204 39.0715 345.918C41.4234 345.372 43.8406 344.851 46.2338 344.395C102.274 333.011 119.215 316.385 123.062 311.567C123.313 311.288 123.588 310.944 123.773 310.641L124.903 308.979L125.029 307.022C129.831 233.782 162.44 166.233 216.924 116.886C219.914 114.201 220.144 109.537 217.459 106.548C214.773 103.558 210.11 103.328 207.12 106.013C178.87 131.615 156.047 162.029 139.38 196.487C123.043 230.249 113.29 266.282 110.571 303.565C106.482 307.626 90.4295 320.423 43.2774 330.029C40.7948 330.526 38.3776 331.048 35.9604 331.569C32.013 332.419 29.4714 336.307 30.3209 340.254ZM678.351 454.761C674.952 453.512 672.947 449.882 673.762 446.249C684.993 397.108 687.697 355.221 687.994 328.771C689.313 209.887 615.227 102.393 503.65 61.3968C488.929 55.9878 458.552 49.269 452.715 47.9779L452.329 47.8926C452.14 47.8507 451.994 47.8183 451.894 47.7957C381.746 36.1916 310.546 51.2793 251.176 90.2998C247.76 92.5313 243.271 91.6239 241.039 88.2074C238.808 84.7908 239.715 80.302 243.132 78.0705C274.042 57.7493 308.115 43.5606 344.325 35.8701C380.714 28.0968 417.729 27.3044 454.381 33.3527L454.732 33.4074C454.794 33.4211 454.914 33.447 455.087 33.4845L455.09 33.4852C459.13 34.3613 492.174 41.5264 508.653 47.581C626.047 90.7148 704.017 203.79 702.575 328.861C702.3 356.061 699.497 399.025 688.006 449.48C687.071 453.439 683.207 455.878 679.224 455.008C679.181 454.992 679.135 454.977 679.087 454.963C679.071 454.958 679.055 454.953 679.039 454.949L679.016 454.942C678.974 454.931 678.932 454.92 678.889 454.909C678.855 454.901 678.821 454.892 678.787 454.884C678.634 454.846 678.481 454.809 678.351 454.761ZM245.268 882.537C245.926 884.783 247.658 886.532 249.749 887.3C251.187 887.828 252.77 887.965 254.306 887.416C334.276 863.606 405.762 828.964 466.822 784.332C529.302 738.665 580.808 682.882 619.886 618.526C621.974 615.065 620.876 610.581 617.415 608.493C613.953 606.405 609.469 607.503 607.381 610.964C569.345 673.699 519.181 728.047 458.234 772.571C398.504 816.207 328.538 850.147 250.171 873.433C246.323 874.616 244.109 878.625 245.268 882.537ZM186.789 874.702C184.697 873.934 183.007 872.274 182.307 869.94C181.124 866.092 183.297 861.995 187.144 860.812C197.686 857.563 208.465 854.475 219.213 851.673C303.544 829.318 378.136 794.703 440.818 748.887C498.61 706.69 546.2 655.107 582.262 595.727C647.268 488.669 657.946 382.274 658.614 328.362C659.845 221.835 593.437 125.546 493.43 88.8006C479.571 83.7083 449.964 77.2724 447.015 76.6315L446.94 76.6152C376.573 65.0044 304.247 83.7592 248.501 128.265C192.688 172.747 158.287 239.118 154.033 310.26C153.799 314.328 150.314 317.351 146.311 317.141C142.242 316.907 139.22 313.423 139.43 309.42C143.9 234.054 180.355 163.913 239.353 116.818C298.482 69.7706 375.07 49.9115 449.559 62.2203L449.909 62.275C451.289 62.5592 483.048 69.4062 498.539 75.0981C604.364 113.981 674.59 215.827 673.303 328.566C672.677 383.977 661.644 493.358 594.897 603.337C557.836 664.427 508.951 717.315 449.602 760.72C385.411 807.614 309.21 842.973 223.146 865.805C212.553 868.589 201.928 871.659 191.566 874.825C189.898 875.326 188.292 875.255 186.789 874.702ZM21.1472 372.491C21.734 374.932 23.548 376.86 25.7704 377.677C27.0777 378.157 28.5291 378.245 29.9045 377.934C37.2696 376.263 44.7 374.616 51.9931 373.141C85.2674 366.375 111.204 356.764 129.241 344.622C132.593 342.367 133.459 337.788 131.203 334.437C128.948 331.086 124.369 330.22 121.018 332.476C104.644 343.523 80.406 352.348 49.0366 358.775C41.5888 360.268 34.069 361.956 26.6145 363.668C22.7085 364.607 20.2323 368.52 21.1472 372.491ZM118.811 835.999C116.85 835.279 115.243 833.798 114.471 831.66C113.044 827.871 114.956 823.677 118.744 822.25C146.021 812.019 174.829 802.87 204.258 795.061C208.188 794.057 212.173 796.337 213.177 800.267C214.181 804.197 211.901 808.181 207.971 809.186C179.031 816.877 150.735 825.843 123.88 835.933C122.23 836.588 120.445 836.6 118.811 835.999ZM237.384 793.138C238.133 795.342 239.823 797.001 241.849 797.746C243.352 798.298 245.024 798.393 246.609 797.714C309.802 777.162 366.446 748.788 414.934 713.336C468.038 674.61 511.687 627.291 544.734 572.886C595.759 488.735 610.501 405.2 613.834 349.893C614.043 345.889 611.021 342.405 606.952 342.171C602.949 341.961 599.464 344.984 599.231 349.052C595.993 402.688 581.723 483.726 532.23 565.324C500.223 618.108 457.876 663.903 406.347 701.575C359.141 736.162 303.885 763.785 242.115 783.896C238.244 785.145 236.136 789.267 237.384 793.138ZM203.644 309.718C200.572 308.59 198.53 305.465 198.898 302.04C201.994 274.837 210.273 248.871 223.561 224.82C236.874 200.704 254.494 179.803 275.988 162.699C322.071 125.918 381.849 110.418 439.962 120.048L440.312 120.103C440.361 120.113 440.461 120.135 440.61 120.168C443.645 120.832 466.794 125.901 478.32 130.136C513.616 143.105 544.729 165.442 568.381 194.757C591.82 223.845 607.089 258.611 612.493 295.391C613.099 299.397 610.32 303.124 606.314 303.73C602.308 304.335 598.581 301.556 597.975 297.55C587.662 227.288 539.858 168.4 473.187 143.903C463.379 140.3 443.033 135.779 438.206 134.706L438.204 134.706L438.203 134.706C437.788 134.613 437.487 134.546 437.319 134.508C383.417 125.535 327.878 139.996 285.07 174.122C245.287 205.873 219.177 253.107 213.433 303.671C213.003 307.667 209.347 310.553 205.35 310.123C204.779 310.061 204.232 309.935 203.644 309.718ZM7.7898 436.507C8.46596 438.907 10.1973 440.656 12.3544 441.448C13.727 441.953 15.2438 442.065 16.7325 441.647C32.3046 437.428 48.0833 433.655 63.7113 430.494C124.497 418.109 167.519 396.525 191.631 366.436C194.194 363.297 193.674 358.655 190.512 356.157C187.373 353.594 182.731 354.114 180.233 357.277C158.295 384.678 118.147 404.499 60.8202 416.152C44.8827 419.348 28.7705 423.22 12.9543 427.499C9.06565 428.592 6.6962 432.618 7.7898 436.507ZM75.6825 790.033C73.7869 789.337 72.245 787.88 71.4007 785.938C69.8842 782.19 71.6654 777.948 75.4367 776.366C111.486 761.643 149.79 748.861 189.324 738.385C249.068 722.575 302.619 699.592 348.588 670.189C351.98 668.023 356.511 669.02 358.677 672.412C360.843 675.805 359.846 680.335 356.454 682.501C309.227 712.703 254.27 736.282 193.037 752.51C154.146 762.851 116.444 775.409 80.9305 789.884C79.1669 790.646 77.3166 790.634 75.6825 790.033ZM380.287 657.204C381.199 658.355 382.321 659.139 383.563 659.595C385.85 660.435 388.481 660.141 390.533 658.595C432.747 625.883 467.795 586.829 494.65 542.613C547.014 456.431 555.589 370.704 556.115 327.274C556.34 309.7 553.453 292.318 547.589 275.771C546.251 271.941 542.081 269.963 538.251 271.301C534.421 272.639 532.444 276.809 533.782 280.639C539.098 295.649 541.687 311.216 541.492 327.094C540.988 369.048 532.704 451.766 482.17 534.985C456.242 577.687 422.448 615.348 381.612 646.934C378.409 649.392 377.828 654.001 380.287 657.204ZM105.743 479.25C103.651 478.481 101.92 476.732 101.22 474.398C100.126 470.509 102.365 466.435 106.253 465.341C160.148 449.904 200.447 425.837 225.982 393.896C250.28 363.504 255.501 332.334 256.512 316.458C259.051 274.213 279.459 234.825 312.513 208.466C345.657 182.066 388.56 170.899 430.386 177.81L430.736 177.864C431.504 177.998 449.452 181.848 458.146 185.042C490.566 196.954 518.089 219.976 535.641 249.942C537.694 253.442 536.501 257.9 533.001 259.953C529.502 262.005 525.044 260.812 522.991 257.313C507.179 230.285 482.32 209.504 453.102 198.768C446.808 196.456 433.983 193.554 429.385 192.513C428.636 192.344 428.105 192.223 427.857 192.163C390.217 185.975 351.512 196.013 321.685 219.848C291.857 243.683 273.396 279.188 271.139 317.233C270.099 334.804 264.289 369.393 237.428 402.924C209.97 437.274 167.155 462.939 110.324 479.301C108.698 479.89 107.115 479.754 105.743 479.25ZM0.827727 499.679C1.52791 502.013 3.21796 503.673 5.30961 504.441C6.81298 504.994 8.41911 505.065 9.99726 504.606C31.5031 497.967 53.5291 492.335 75.4083 487.91C79.3556 487.061 81.9625 483.196 81.1131 479.249C80.2636 475.302 76.3992 472.695 72.4518 473.544C50.0844 478.086 27.6595 483.794 5.66544 490.551C1.81811 491.733 -0.355252 495.831 0.827727 499.679ZM45.3006 739.254C43.4704 738.581 41.9044 737.19 41.0601 735.247C39.4543 731.541 41.2595 727.234 44.9654 725.628C85.8483 708.452 129.323 693.712 174.21 681.79C208.325 672.736 240.336 661.129 269.333 647.226C273.022 645.466 277.336 647.051 279.12 650.674C280.881 654.363 279.296 658.677 275.673 660.461C245.806 674.712 212.925 686.667 177.988 695.939C133.768 707.66 90.8951 722.176 50.6793 739.152C48.9157 739.914 47.0001 739.878 45.3006 739.254ZM282.451 649.077C283.326 650.734 284.744 651.923 286.378 652.523C288.273 653.22 290.392 653.108 292.358 652.198C311.412 642.136 329.399 630.94 345.914 618.906C386.469 589.294 419.705 553.357 444.681 512.234C489.724 437.903 497.187 364.083 497.598 326.621C498.014 291.163 477.526 258.485 445.491 243.302C441.844 241.517 437.478 243.103 435.758 246.774C433.973 250.421 435.559 254.787 439.23 256.507C466.163 269.222 483.306 296.665 482.975 326.441C482.521 362.404 475.389 433.304 432.135 504.583C408.134 544.061 376.177 578.538 337.22 607.031C321.314 618.621 303.911 629.438 285.506 639.146C281.9 641.085 280.577 645.495 282.451 649.077ZM323.239 307.885C319.644 306.564 317.604 302.624 318.753 298.892C324.137 281.21 334.63 265.777 349.013 254.295C369.176 238.185 395.335 231.401 420.784 235.633L421.486 235.743C425.476 236.393 428.158 240.197 427.508 244.187C426.858 248.177 423.054 250.86 419.064 250.21L418.362 250.1C397.033 246.566 375.072 252.222 358.16 265.742C346.08 275.4 337.25 288.328 332.744 303.217C331.547 307.08 327.47 309.291 323.607 308.094C323.5 307.981 323.369 307.933 323.239 307.885ZM0.377851 561.682C1.12607 563.886 2.77473 565.456 4.80102 566.201C6.30439 566.753 8.06528 566.807 9.75683 566.241C35.1781 557.628 61.2782 550.6 87.1941 545.284C172.122 527.97 236.297 494.647 278.016 446.322C313.458 405.187 325.109 361.765 328.575 332.547C329.004 328.55 326.185 324.917 322.147 324.398C318.15 323.968 314.517 326.788 313.998 330.826C306.972 389.524 267.767 493.598 84.2137 530.984C57.6788 536.368 31.001 543.555 4.97813 552.393C1.14813 553.73 -0.894509 557.876 0.377851 561.682ZM10.8861 626.156C8.92517 625.435 7.27646 623.865 6.54557 621.816C5.18383 618.051 7.11977 613.792 10.9498 612.454C38.863 602.308 67.4178 594.253 95.9057 588.399C217.567 563.586 301.117 509.636 344.203 427.909C346.119 424.31 350.544 422.968 354.078 424.86C357.677 426.776 359.018 431.201 357.126 434.735C337.092 472.703 308.116 505.53 270.997 532.25C225.588 564.975 167.608 588.704 98.7968 602.741C71.0413 608.419 43.1535 616.274 15.9313 626.155C14.2157 626.786 12.4548 626.732 10.8861 626.156ZM20.0736 680.5C20.8939 682.508 22.4599 683.899 24.2901 684.572C25.9242 685.172 27.8639 685.143 29.7408 684.274C71.9404 666.543 116.814 651.427 163.101 639.13C220.957 623.813 270.825 600.961 311.381 571.349C345.65 546.327 373.666 516.114 394.587 481.588C432.414 419.221 438.661 357.195 439.022 325.723C439.101 318.036 436.467 310.466 431.447 304.541C426.517 298.575 419.522 294.595 411.893 293.35L411.257 293.265C402.159 291.777 392.876 294.227 385.652 299.956C378.517 305.643 374.05 314.166 373.508 323.314C372.512 340.16 369.116 366.362 358.511 395.628C357.184 399.443 359.127 403.644 362.918 405.037C366.733 406.365 370.934 404.421 372.327 400.63C383.443 369.772 387.105 342.035 388.153 324.244C388.461 319.164 390.779 314.674 394.775 311.469C398.748 308.329 403.899 307.031 408.876 307.821L409.512 307.907C418.259 309.34 424.552 316.845 424.416 325.698C423.637 394.852 396.233 562.316 159.34 625.136C112.387 637.633 66.9109 652.974 24.0443 670.905C20.273 672.487 18.4918 676.729 20.0736 680.5Z" fill="#4B9A9D"/></svg>